<svg xmlns="http://www.w3.org/2000/svg" width="107.524" height="70.004" viewBox="0 0 107.524 70.004">
  <g id="Group_1837" data-name="Group 1837" transform="translate(-559.667 -648.977)">
    <g id="Group_1813" data-name="Group 1813" transform="translate(657.578 684.147)">
      <g id="Group_1812" data-name="Group 1812" transform="translate(0 0)">
        <path id="Path_1316" data-name="Path 1316" d="M797.582,734.922a1.856,1.856,0,1,1-1.893-1.818A1.849,1.849,0,0,1,797.582,734.922Zm-3.317.09a1.464,1.464,0,1,0,1.426-1.562A1.492,1.492,0,0,0,794.265,735.012Zm2.176-.66a1.313,1.313,0,0,0-.579-.119.691.691,0,0,0-.732.77.715.715,0,0,0,.764.737,1.127,1.127,0,0,0,.6-.166l.1.312a1.383,1.383,0,0,1-.746.213,1.049,1.049,0,0,1-1.148-1.068,1.125,1.125,0,0,1,1.152-1.155,1.15,1.15,0,0,1,.67.153Z" transform="translate(-793.871 -733.103)"/>
      </g>
    </g>
    <g id="Group_1814" data-name="Group 1814" transform="translate(559.667 658.397)">
      <path id="Path_1317" data-name="Path 1317" d="M563.676,702.375s-6.318.445-3.091-8.28c2.942-7.955,14.365-21.479,17.708-22.466a1.414,1.414,0,0,1,1.846.663c.147.322-.081.63-.343,1.166a116.692,116.692,0,0,0-4.916,12.509c-1.4,4.852-1.956,6.759-1.956,6.759s-1.957-.991-1.586-4.351a44.958,44.958,0,0,1,1.7-7.451S565.379,690.926,563.676,702.375Z" transform="translate(-559.667 -671.51)"/>
    </g>
    <g id="Group_1815" data-name="Group 1815" transform="translate(572.865 658.1)">
      <path id="Path_1318" data-name="Path 1318" d="M593.507,684.708s13.571-15.589,17.554-13.758c1.585.959,1.419,1.356,1.215,1.657s-9.284,12.867-9.321,25.386c0,1.206-.069,1.644-.75,1.794s-3.157.384-3.446-4.151,2.567-12.6,5.74-17.358c0,0-3.114,1.511-11.071,13.252,0,0-.734,1.125-1.08,1.126a2.036,2.036,0,0,1-1.053-.342C590.8,692.043,593.507,684.708,593.507,684.708Z" transform="translate(-591.235 -670.8)"/>
    </g>
    <g id="Group_1816" data-name="Group 1816" transform="translate(587.344 665.341)">
      <path id="Path_1319" data-name="Path 1319" d="M637.8,688.373c-2.29-1.212-6.348,2.106-9.184,6.414-2.921,4.439-3.835,8.759-1.137,10.23,2.494,1.357,6.23-2.411,8.9-7.44C638.764,693.1,640.213,689.647,637.8,688.373Zm-1.788,6.1c-3.56,5.974-4.863,5.626-5.276,5.367-.435-.275-.485-2,2.589-6.487s4.036-3.613,4.036-3.613C637.658,689.956,638.425,690.349,636.011,694.471Z" transform="translate(-625.871 -688.12)"/>
    </g>
    <g id="Group_1817" data-name="Group 1817" transform="translate(595.874 665.861)">
      <path id="Path_1320" data-name="Path 1320" d="M650.338,691a9.583,9.583,0,0,0,3.792-1.63s.58-.133-.531,1.76-3.58,7.022-2.368,7.155,3.854-5.774,3.854-5.774l-1.566,6.111s-2.669,5.527-5.565,5.527-1.171-4.251-1.171-4.251Z" transform="translate(-646.273 -689.365)"/>
    </g>
    <g id="Group_1818" data-name="Group 1818" transform="translate(636.518 685.404)">
      <path id="Path_1321" data-name="Path 1321" d="M755.9,736.374c-2.383-1.258-6.6,2.188-9.548,6.669-3.036,4.612-3.987,9.1-1.181,10.633,2.593,1.412,6.475-2.506,9.255-7.734C756.9,741.284,758.4,737.7,755.9,736.374Zm-1.859,6.339c-3.7,6.211-5.055,5.848-5.484,5.577-.453-.283-.506-2.074,2.691-6.74s4.193-3.756,4.193-3.756C755.748,738.021,756.542,738.43,754.036,742.714Z" transform="translate(-743.494 -736.112)"/>
    </g>
    <g id="Group_1819" data-name="Group 1819" transform="translate(602.987 659.422)">
      <path id="Path_1322" data-name="Path 1322" d="M673.845,677.318c.9.3-1.766,3.277-.024,3.277,1.891,0,4.125-6.388.841-6.626,0,0-4.749-.651-9.675,9.575s2.425,10.184,2.425,10.184c4.3,0,7.446-5.492,7.446-5.492l1.168-4.352c-5.247,7.146-7.23,5.982-7.23,5.982s-2.343-.537-.079-5.572S673.845,677.318,673.845,677.318Z" transform="translate(-663.289 -673.961)"/>
    </g>
    <g id="Group_1820" data-name="Group 1820" transform="translate(613.688 651.633)">
      <path id="Path_1323" data-name="Path 1323" d="M691.4,683.888s-3.079-.131-2.418-4.7,4.925-16.823,8.857-21.754,4.519.35,4.519.35-8.538,8.005-9.893,24.742C692.408,683.191,692.544,683.962,691.4,683.888Z" transform="translate(-688.885 -655.331)"/>
    </g>
    <g id="Group_1821" data-name="Group 1821" transform="translate(617.564 658.903)">
      <path id="Path_1324" data-name="Path 1324" d="M699.293,680.978s6.933-7.975,12.648-8.25c3.029-.146,2.826,2.094,2.525,3.245a.45.45,0,0,1-.635.3c-.49-.248-1.513-.424-3.566.24-3.676,1.187-9.9,5.535-12.109,8.671Z" transform="translate(-698.156 -672.721)"/>
    </g>
    <g id="Group_1822" data-name="Group 1822" transform="translate(619.701 666.675)">
      <path id="Path_1325" data-name="Path 1325" d="M704.956,691.311a15.637,15.637,0,0,0,11.087,9.472c.733.142.792.579.436.966a5.1,5.1,0,0,1-3.106,1.554c-1.33.014-4.093-.193-6.634-3.646a23.026,23.026,0,0,1-3.471-7.081Z" transform="translate(-703.268 -691.311)"/>
    </g>
    <g id="Group_1823" data-name="Group 1823" transform="translate(646.412 685.992)">
      <path id="Path_1326" data-name="Path 1326" d="M770.252,739.271s1.817.175,4.3-1.747c0,0,.594-.209-.419,1.817s-4.333,10.9-.978,11.147,6.849-9.015,8.211-8.945-4.263,10.518-8.77,12.649-6.919-1.922-4.438-8.526C769.763,741.054,770.252,739.271,770.252,739.271Z" transform="translate(-767.161 -737.518)"/>
    </g>
    <g id="Group_1824" data-name="Group 1824" transform="translate(578.619 684.618)">
      <path id="Path_1327" data-name="Path 1327" d="M616.429,735.966s1.518-1.784,2.311-1.735,1.488,0,.942,1.041c0,0-8.579,16.959-10.463,31.983,0,0-.253,1.337-1.432,1.337s-2.064-1.887-2.064-1.887-2.418-3.361,1.592-14.507S616.429,735.966,616.429,735.966Z" transform="translate(-605.001 -734.231)"/>
    </g>
    <g id="Group_1825" data-name="Group 1825" transform="translate(575.402 685.732)">
      <path id="Path_1328" data-name="Path 1328" d="M616.6,751.213a18.863,18.863,0,0,0,3.636-3.776c3.464-5.249,1.494-11.141-4.247-10.492-6.355.719-15.163,5.755-17.867,10.792-2.72,5.066,2.241,5.661,2.241,5.661s0-.053.008-.15a11.14,11.14,0,0,1,2.105-5.913c5.821-8,12.716-7.965,12.716-7.965,1.763-.065,4.689.7,2.743,4.3s-8.99,7.462-8.99,7.462S609.23,756.705,616.6,751.213Z" transform="translate(-597.304 -736.896)"/>
    </g>
    <g id="Group_1826" data-name="Group 1826" transform="translate(593.967 704.306)">
      <path id="Path_1329" data-name="Path 1329" d="M642.761,794.213a2.086,2.086,0,0,1-1.048-1.776c0-1.922,1.048-3.461,4.144-4.781s25.5-9.472,45.4-5.009c0,0,.318.41-.455.364-.748-.044-18.391-2.3-41.162,7.668q-2.082.912-4.078,2.005Z" transform="translate(-641.713 -781.324)"/>
    </g>
    <g id="Group_1827" data-name="Group 1827" transform="translate(595.996 690.851)">
      <path id="Path_1330" data-name="Path 1330" d="M656.877,749.236s-2.918-1.37-7.42,6.295-2.743,11.078-1.372,11.57,4.608.247,8.793-8.3S656.877,749.236,656.877,749.236Zm-1.864,6.446c-3.136,5.834-4,5.166-4.4,4.936-.424-.241-.567-1.822,2.167-6.224s3.758-3.626,3.758-3.626C656.827,750.963,657.133,751.658,655.013,755.681Z" transform="translate(-646.566 -749.141)"/>
    </g>
    <g id="Group_1828" data-name="Group 1828" transform="translate(609.258 688.12)">
      <path id="Path_1331" data-name="Path 1331" d="M686.884,752.881c-4.154,6.962-6.843,5.5-6.843,5.5-4.922-2.161,2.089-13.973,2.089-13.973l1.183-1.8s2.809-.016,1.853,2.3c-.367.888-4.037,7.309-2.772,8.176.429.294,1.741,1.018,6.831-8.153h0l-2.342,7.949" transform="translate(-678.289 -742.608)"/>
    </g>
    <g id="Group_1829" data-name="Group 1829" transform="translate(617.5 687.238)">
      <path id="Path_1332" data-name="Path 1332" d="M706.6,750.049c-4.153,6.963-6.842,5.5-6.842,5.5-4.922-2.161,2.089-13.973,2.089-13.973l.622-1.077s2.635-.08,1.853,2.3c-.3.908-3.476,6.588-2.21,7.455.429.294,1.71,1.019,6.8-8.152h0l-2.311,7.948" transform="translate(-698.003 -740.497)"/>
    </g>
    <g id="Group_1830" data-name="Group 1830" transform="translate(625.231 685.092)">
      <path id="Path_1333" data-name="Path 1333" d="M725.1,745.762c-4.153,6.962-6.842,5.5-6.842,5.5-4.922-2.161,2.051-14.01,2.051-14.01l1.026-1.884s3,.106,2.049,2.423c-.367.889-4.038,7.309-2.772,8.177.429.294,1.741,1.018,6.831-8.153h0l-2.342,7.949" transform="translate(-716.495 -735.366)"/>
    </g>
    <g id="Group_1831" data-name="Group 1831" transform="translate(628.091 684.324)">
      <path id="Path_1334" data-name="Path 1334" d="M734.956,735.836c1.167-2.3-1.954-2.309-1.954-2.309l-.521,1.086s-12.964,25.669-8.018,29.045a3.492,3.492,0,0,0,2.277.275S726.7,752.076,734.956,735.836Z" transform="translate(-723.338 -733.527)"/>
    </g>
    <g id="Group_1832" data-name="Group 1832" transform="translate(602.358 688.12)">
      <path id="Path_1335" data-name="Path 1335" d="M673.709,742.608l-4.044,4.266c-1.043,1.009-3.3,3.67-5.218,2.574s.59-3.022,1.182-2.659c0,0-.208-.768-.921-.681a3.879,3.879,0,0,0-2.435,2.192s-1.391,2.452.522,3.774a3.35,3.35,0,0,0,3.022.209,6.414,6.414,0,0,0,2.1-1.213,44.977,44.977,0,0,0,3.751-3.518l3.061-3.114a1.408,1.408,0,0,0-1-1.831" transform="translate(-661.785 -742.608)"/>
    </g>
    <g id="Group_1833" data-name="Group 1833" transform="translate(644.649 652.735)">
      <path id="Path_1336" data-name="Path 1336" d="M777.059,657.967s.28,2.8-3.036,3.475-9.895.266-11.053-.493c-.123-1.08.152-1.625,1.386-1.625A50.024,50.024,0,0,0,777.059,657.967Z" transform="translate(-762.943 -657.967)"/>
    </g>
    <g id="Group_1834" data-name="Group 1834" transform="translate(644.675 655.717)">
      <path id="Path_1337" data-name="Path 1337" d="M763.007,665.1s2.105,11.2,12.172,16.671c2.157.879,2.8-2.117,2.556-2.716a9.123,9.123,0,0,1-1.837-.679,24.271,24.271,0,0,1-11.025-13.022Z" transform="translate(-763.007 -665.099)"/>
    </g>
    <g id="Group_1835" data-name="Group 1835" transform="translate(640.477 660.64)">
      <path id="Path_1338" data-name="Path 1338" d="M763.862,677.159s.2-.639,1.558,0,2.636,3.915.519,8.029-6.232,7.19-9.986,6.232-3.859-6.5-.943-10.214,4.617-4.127,5.856-3.807-2.95,4.13-4.466,7.453c-1.26,2.761-.331,3.618.052,3.827s2.344,1.321,7.011-5.409C765.06,680.954,765.38,678.277,763.862,677.159Z" transform="translate(-752.965 -676.875)"/>
    </g>
    <g id="Group_1836" data-name="Group 1836" transform="translate(633.926 648.977)">
      <path id="Path_1339" data-name="Path 1339" d="M752.995,682.652c6.582,1.487,18.711-9.9,17.479-21.866-1.042-10.118-8.872-12.225-15.038-11.747-6.38.5-17.169,5.707-18.08,17.479-.9,11.683,8.6,12.95,13.127,12.737a17.336,17.336,0,0,0,12.1-5.98c1.991-2.518.88-4.091.438-4.559a.154.154,0,0,0-.25.038c-3.7,7.146-9.328,8.15-12.115,8.378-5.014.41-12.481-1.265-11.39-11.252,1.1-10.1,10.3-14.577,16.523-15.249s12.207,2.441,12.526,10.686-6.97,16.382-11.605,17.868-5.024.177-5.2,1.168A1.8,1.8,0,0,0,752.995,682.652Z" transform="translate(-737.296 -648.977)"/>
    </g>
  </g>
</svg>
