<svg xmlns="http://www.w3.org/2000/svg" width="69.699" height="9.035" viewBox="0 0 69.699 9.035">
  <g id="Group_2045" data-name="Group 2045" transform="translate(-158.793 -11.518)" style="isolation: isolate">
    <path id="Path_1910" data-name="Path 1910" d="M158.793,20.367V11.7h3.713l-.484,3.279h3.07l-.483-3.279h3.712v8.663h-3.712l.483-3.391h-3.07l.484,3.391Z" fill="#035dff"/>
    <path id="Path_1911" data-name="Path 1911" d="M172.408,15.021v.531l3.936-.123v1.138l-3.936-.123v.581l5.557-.272v3.614h-8.712V11.7h8.415v3.44Z" fill="#035dff"/>
    <path id="Path_1912" data-name="Path 1912" d="M187.112,16.567v3.8h-8.3V11.7h3.452l-.334,5.061Z" fill="#035dff"/>
    <path id="Path_1913" data-name="Path 1913" d="M187.919,20.367V11.7h5.308c2.414.025,4.047,1.027,4.047,3.13,0,2.068-1.6,3.12-4.059,3.12h-2.1l.285,2.424Zm3.192-4.047h2.018c.569,0,.928-.149.928-.483,0-.371-.421-.47-.928-.47h-2.018Z" fill="#035dff"/>
    <path id="Path_1914" data-name="Path 1914" d="M197.921,11.7h8.094v3.725l-2.6-.2.024,1.608,2.575-.2v3.725h-8.094V16.642l2.574.2.025-1.608-2.6.2Z" fill="#035dff"/>
    <path id="Path_1915" data-name="Path 1915" d="M213.825,20.367l-3.65-4.629-.187.05.892,4.579h-4.034V11.7h2.982l3.564,3.861.2-.062-.731-3.8h3.874v8.663Z" fill="#035dff"/>
    <path id="Path_1916" data-name="Path 1916" d="M217.541,16.047c0-3.031,2.277-4.529,5.531-4.529a20.1,20.1,0,0,1,3.652.322l-.347,3.366a17.193,17.193,0,0,0-3.156-.285c-1.572,0-2.536.371-2.536,1.089,0,.743.742,1.1,2.042,1.1.89,0,1.484-.223,1.5-.545l-2.339-.025V15.355h6.608l-.013,1.361h-.643l.087,3.651h-3.156l.668-3.428H225.2c-.421,2.784-1.547,3.613-3.391,3.613C219.286,20.552,217.541,19,217.541,16.047Z" fill="#035dff"/>
  </g>
</svg>
