<svg xmlns="http://www.w3.org/2000/svg" width="59.066" height="9.033" viewBox="0 0 59.066 9.033">
  <g id="Group_2041" data-name="Group 2041" transform="translate(-214.838 -71.42)" style="isolation: isolate">
    <path id="Path_1883" data-name="Path 1883" d="M214.837,75.95c0-3.033,2.276-4.53,5.531-4.53a20.173,20.173,0,0,1,3.651.322l-.346,3.366a17.2,17.2,0,0,0-3.156-.284c-1.572,0-2.537.371-2.537,1.089,0,.742.743,1.1,2.041,1.1.892,0,1.486-.224,1.5-.545l-2.338-.024V75.256h6.607l-.012,1.362h-.643l.087,3.65h-3.157l.669-3.428H222.5c-.421,2.784-1.547,3.614-3.391,3.614C216.582,80.454,214.837,78.907,214.837,75.95Z" fill="#035dff"/>
    <path id="Path_1884" data-name="Path 1884" d="M229.555,74.922v.532l3.934-.124v1.139l-3.934-.124v.582l5.555-.272v3.613H226.4V71.606h8.415v3.44Z" fill="#035dff"/>
    <path id="Path_1885" data-name="Path 1885" d="M242.935,80.268l-3.651-4.628-.186.05.891,4.578h-4.034V71.606h2.982l3.564,3.861.2-.062-.73-3.8h3.874v8.662Z" fill="#035dff"/>
    <path id="Path_1886" data-name="Path 1886" d="M255.274,75.4l-3.118-.124.644,4.987h-3.688l.644-4.987-3.107.124.025-3.8h8.576Z" fill="#035dff"/>
    <path id="Path_1887" data-name="Path 1887" d="M264.386,76.469v3.8h-8.3V71.606h3.452l-.334,5.061Z" fill="#035dff"/>
    <path id="Path_1888" data-name="Path 1888" d="M268.348,74.922v.532l3.935-.124v1.139l-3.935-.124v.582l5.556-.272v3.613h-8.712V71.606h8.415v3.44Z" fill="#035dff"/>
  </g>
</svg>
