<svg xmlns="http://www.w3.org/2000/svg" width="85.643" height="9.035" viewBox="0 0 85.643 9.035">
  <g id="Group_2050" data-name="Group 2050" transform="translate(-131.713 14.422)" style="isolation: isolate">
    <path id="Path_1949" data-name="Path 1949" d="M134.918-8.827l.3,3.254h-3.5v-8.662h5.308c2.4.024,4.047.656,4.047,2.6,0,1.509-1.424,2.239-3.96,2.239v.186h.915c2.215,0,3.454,1.361,3.168,3.638h-4c.421-1.732.236-3.254-1.051-3.254Zm-.013-1.844v.841h1.968c.569,0,.978-.136.978-.433s-.421-.408-.978-.408Z" fill="#035dff"/>
    <path id="Path_1950" data-name="Path 1950" d="M145.143-10.919v.532l3.934-.123v1.138L145.143-9.5v.582l5.555-.272v3.613h-8.712v-8.662H150.4v3.44Z" fill="#035dff"/>
    <path id="Path_1951" data-name="Path 1951" d="M151.456-6.142l-.013-3.972A7.733,7.733,0,0,0,156.2-8.778c.953,0,1.461-.062,1.461-.285,0-.94-6.163.359-6.163-2.8,0-1.869,2.005-2.562,4.715-2.562a13.606,13.606,0,0,1,4.479.78l-.469,3.539a8.235,8.235,0,0,0-3.849-.941c-.916,0-1.547.112-1.547.347,0,.978,6.188-.458,6.188,2.6,0,1.806-1.733,2.71-4.7,2.71A17.42,17.42,0,0,1,151.456-6.142Z" fill="#035dff"/>
    <path id="Path_1952" data-name="Path 1952" d="M161.618-14.235h8.094v3.725l-2.6-.2.025,1.609,2.574-.2v3.724h-8.094V-9.3l2.574.2.026-1.609-2.6.2Z" fill="#035dff"/>
    <path id="Path_1953" data-name="Path 1953" d="M178.848-9.372v3.8h-8.3v-8.662H174l-.334,5.061Z" fill="#035dff"/>
    <path id="Path_1954" data-name="Path 1954" d="M179.555-14.235h8.093v3.725l-2.6-.2.024,1.609,2.574-.2v3.724h-8.093V-9.3l2.574.2.025-1.609-2.6.2Z" fill="#035dff"/>
    <path id="Path_1955" data-name="Path 1955" d="M191.636-10.919v.532l3.935-.123v1.138L191.636-9.5v.582l5.556-.272v3.613H188.48v-8.662H196.9v3.44Z" fill="#035dff"/>
    <path id="Path_1956" data-name="Path 1956" d="M205.016-5.573,201.365-10.2l-.186.05.891,4.578h-4.034v-8.662h2.983l3.563,3.861.2-.062-.73-3.8h3.874v8.662Z" fill="#035dff"/>
    <path id="Path_1957" data-name="Path 1957" d="M217.356-10.436l-3.118-.124.644,4.987h-3.688l.644-4.987-3.107.124.025-3.8h8.576Z" fill="#035dff"/>
  </g>
</svg>
