<svg xmlns="http://www.w3.org/2000/svg" width="39.189" height="8.848" viewBox="0 0 39.189 8.848">
  <g id="Group_2044" data-name="Group 2044" transform="translate(-137.229 -113.178)" style="isolation: isolate">
    <path id="Path_1906" data-name="Path 1906" d="M137.229,121.84v-8.663h5.309c2.413.026,4.047,1.027,4.047,3.131,0,2.067-1.6,3.119-4.059,3.119h-2.1l.285,2.425Zm3.193-4.047h2.017c.57,0,.928-.148.928-.482,0-.371-.421-.471-.928-.471h-2.017Z" fill="#035dff"/>
    <path id="Path_1907" data-name="Path 1907" d="M147.231,118.2v-5.025H150.7l-.272,3.355a1.48,1.48,0,1,0,2.933,0l-.272-3.355h3.44V118.2c0,2.425-1.683,3.824-4.64,3.824S147.231,120.64,147.231,118.2Z" fill="#035dff"/>
    <path id="Path_1908" data-name="Path 1908" d="M160.637,118.585l.3,3.255h-3.5v-8.663h5.308c2.4.026,4.047.656,4.047,2.6,0,1.51-1.424,2.239-3.96,2.239v.186h.915c2.216,0,3.453,1.361,3.168,3.638h-4c.421-1.732.235-3.255-1.052-3.255Zm-.013-1.843v.841h1.968c.569,0,.977-.136.977-.433s-.421-.408-.977-.408Z" fill="#035dff"/>
    <path id="Path_1909" data-name="Path 1909" d="M170.86,116.5v.531l3.936-.123v1.137l-3.936-.123v.581l5.557-.271v3.613h-8.712v-8.663h8.415v3.441Z" fill="#035dff"/>
  </g>
</svg>
