<svg xmlns="http://www.w3.org/2000/svg" width="79.158" height="9.033" viewBox="0 0 79.158 9.033">
  <g id="Group_2049" data-name="Group 2049" transform="translate(-247.16 9.551)" style="isolation: isolate">
    <path id="Path_1941" data-name="Path 1941" d="M255.787-5.566l-3.119-.124L253.311-.7h-3.687l.644-4.988-3.107.124.025-3.8h8.576Z" fill="#035dff"/>
    <path id="Path_1942" data-name="Path 1942" d="M259.8-3.957,260.1-.7h-3.5V-9.365H261.9c2.4.025,4.047.656,4.047,2.6,0,1.51-1.424,2.24-3.96,2.24v.186h.915c2.216,0,3.453,1.361,3.168,3.638h-4c.421-1.733.235-3.255-1.052-3.255ZM259.786-5.8v.842h1.968c.569,0,.977-.136.977-.433s-.421-.409-.977-.409Z" fill="#035dff"/>
    <path id="Path_1943" data-name="Path 1943" d="M266.558-4.34V-9.365h3.465l-.272,3.354a1.374,1.374,0,0,0,1.46,1.683,1.382,1.382,0,0,0,1.473-1.683l-.273-3.354h3.441V-4.34c0,2.425-1.683,3.823-4.641,3.823S266.558-1.9,266.558-4.34Z" fill="#035dff"/>
    <path id="Path_1944" data-name="Path 1944" d="M276.6-1.272l-.013-3.972a7.727,7.727,0,0,0,4.752,1.337c.953,0,1.461-.062,1.461-.285,0-.94-6.163.359-6.163-2.8,0-1.869,2.005-2.561,4.715-2.561a13.605,13.605,0,0,1,4.479.779l-.47,3.539a8.234,8.234,0,0,0-3.848-.94c-.916,0-1.547.111-1.547.347,0,.977,6.187-.458,6.187,2.6,0,1.807-1.732,2.71-4.7,2.71A17.413,17.413,0,0,1,276.6-1.272Z" fill="#035dff"/>
    <path id="Path_1945" data-name="Path 1945" d="M295.038-5.566,291.92-5.69,292.563-.7h-3.687l.643-4.988-3.106.124.024-3.8h8.577Z" fill="#035dff"/>
    <path id="Path_1946" data-name="Path 1946" d="M295.746-9.365h8.094V-5.64l-2.6-.2.025,1.609,2.574-.2V-.7h-8.094V-4.427l2.574.2.026-1.609-2.6.2Z" fill="#035dff"/>
    <path id="Path_1947" data-name="Path 1947" d="M311.651-.7,308-5.331l-.187.05L308.706-.7h-4.034V-9.365h2.982L311.218-5.5l.2-.062-.731-3.8h3.875V-.7Z" fill="#035dff"/>
    <path id="Path_1948" data-name="Path 1948" d="M315.366-5.021c0-3.032,2.278-4.529,5.531-4.529a20.187,20.187,0,0,1,3.652.321L324.2-5.862a17.1,17.1,0,0,0-3.156-.285c-1.571,0-2.536.371-2.536,1.089,0,.742.742,1.1,2.042,1.1.89,0,1.484-.223,1.5-.545l-2.339-.024V-5.714h6.608l-.012,1.361h-.644L325.749-.7h-3.156l.669-3.428h-.236c-.421,2.784-1.547,3.613-3.39,3.613C317.111-.517,315.366-2.064,315.366-5.021Z" fill="#035dff"/>
  </g>
</svg>
