<svg xmlns="http://www.w3.org/2000/svg" width="68.82" height="9.033" viewBox="0 0 68.82 9.033">
  <g id="Group_2046" data-name="Group 2046" transform="translate(-245.469 -14.479)" style="isolation: isolate">
    <path id="Path_1917" data-name="Path 1917" d="M245.469,23.326V14.663h3.712l-.483,3.28h3.07l-.484-3.28H255v8.663h-3.713l.484-3.391H248.7l.483,3.391Z" fill="#fff460"/>
    <path id="Path_1918" data-name="Path 1918" d="M255.8,19c0-2.946,2.128-4.517,5.185-4.517s5.185,1.571,5.185,4.517-2.128,4.516-5.185,4.516S255.8,21.927,255.8,19Zm7.177,0c0-.57-.767-.9-1.992-.9s-1.98.334-1.98.9.755.89,1.98.89S262.982,19.551,262.982,19Z" fill="#fff460"/>
    <path id="Path_1919" data-name="Path 1919" d="M266.982,23.326V14.663h5.309c2.413.025,4.047,1.028,4.047,3.131,0,2.067-1.6,3.119-4.06,3.119h-2.1l.285,2.425Zm3.193-4.046h2.017c.57,0,.928-.15.928-.484,0-.371-.421-.469-.928-.469h-2.017Z" fill="#fff460"/>
    <path id="Path_1920" data-name="Path 1920" d="M280.238,17.98v.532l3.936-.124v1.139l-3.936-.124v.582l5.557-.273v3.614h-8.712V14.663H285.5V18.1Z" fill="#fff460"/>
    <path id="Path_1921" data-name="Path 1921" d="M286.64,23.326V14.663h8.34v3.7l-5.185-.273v.668l4.047-.123v1.67l-4.047-.2.445,3.217Z" fill="#fff460"/>
    <path id="Path_1922" data-name="Path 1922" d="M295.786,19.688V14.663h3.466l-.273,3.354a1.48,1.48,0,1,0,2.933,0l-.272-3.354h3.44v5.025c0,2.425-1.683,3.823-4.641,3.823S295.786,22.125,295.786,19.688Z" fill="#fff460"/>
    <path id="Path_1923" data-name="Path 1923" d="M314.29,19.527v3.8h-8.3V14.663h3.452l-.334,5.062Z" fill="#fff460"/>
  </g>
</svg>
