<svg xmlns="http://www.w3.org/2000/svg" width="406.245" height="281.484" viewBox="0 0 406.245 281.484">
  <g id="Group_1892" data-name="Group 1892" transform="translate(-32.839 -84.351)">
    <g id="Group_1" data-name="Group 1" transform="translate(402.871 217.249)">
      <path id="Path_1" data-name="Path 1" d="M336.258,195.226a6.918,6.918,0,1,1-7.059-6.867A6.936,6.936,0,0,1,336.258,195.226Zm-12.685.39a5.784,5.784,0,1,0,5.649-6.319A5.866,5.866,0,0,0,323.574,195.616Zm8.527-2.893a4.952,4.952,0,0,0-2.23-.47,2.955,2.955,0,0,0-3.12,3.283,3.035,3.035,0,0,0,3.306,3.141,4.478,4.478,0,0,0,2.292-.652l.3.861a5.214,5.214,0,0,1-2.793.779,3.947,3.947,0,0,1-4.287-4.031,4.212,4.212,0,0,1,4.259-4.362,4.527,4.527,0,0,1,2.529.553Z" transform="translate(-322.426 -188.357)" fill="#ffb4ce"/>
    </g>
    <g id="Group_2" data-name="Group 2" transform="translate(214.849 343.215)">
      <path id="Path_2" data-name="Path 2" d="M186.587,289.9a5.656,5.656,0,0,1,1.719,1.783,3.6,3.6,0,0,1,.5,2.013,4.429,4.429,0,0,1-2.452,3.506,3.6,3.6,0,0,1-2.06.224,5.658,5.658,0,0,1-2.264-1L179.9,294.94l-2.506,3.583-2.112-1.477,7.066-10.107Zm-3.716,4.629a2.62,2.62,0,0,0,1.708.59,2.111,2.111,0,0,0,1.665-2.38,2.652,2.652,0,0,0-1.146-1.394l-1.807-1.264-2.227,3.184Z" transform="translate(-175.28 -286.938)" fill="#ffb4ce"/>
    </g>
    <g id="Group_3" data-name="Group 3" transform="translate(232.025 350.852)">
      <path id="Path_3" data-name="Path 3" d="M194.1,293.517l-2.875,11.992-2.507-.6,2.874-11.992Zm5.415,6.505-.483,2.016-7.851-1.882.484-2.016Zm2.379-4.637-2.875,11.992-2.507-.6,2.875-11.992Z" transform="translate(-188.722 -292.915)" fill="#ffb4ce"/>
    </g>
    <g id="Group_4" data-name="Group 4" transform="translate(251.533 353.12)">
      <path id="Path_4" data-name="Path 4" d="M209.492,294.711a6.215,6.215,0,0,1,3.2.539,5.166,5.166,0,0,1,2.2,2.037,8.4,8.4,0,0,1,.482,6.784,5.151,5.151,0,0,1-1.887,2.326,6.907,6.907,0,0,1-6.308.447,5.11,5.11,0,0,1-2.2-2.034,8.388,8.388,0,0,1-.482-6.785,5.123,5.123,0,0,1,1.9-2.326A6.253,6.253,0,0,1,209.492,294.711Zm.15,2.106a3.134,3.134,0,0,0-1.728.609,3,3,0,0,0-1.016,1.513,7.19,7.19,0,0,0,.328,4.623,2.989,2.989,0,0,0,1.219,1.356,3.147,3.147,0,0,0,1.8.36,3.093,3.093,0,0,0,1.717-.609,3.014,3.014,0,0,0,1.007-1.514,7.2,7.2,0,0,0-.327-4.622,3.031,3.031,0,0,0-1.211-1.356A3.092,3.092,0,0,0,209.642,296.816Z" transform="translate(-203.989 -294.689)" fill="#ffb4ce"/>
    </g>
    <g id="Group_5" data-name="Group 5" transform="translate(267.757 349.231)">
      <path id="Path_5" data-name="Path 5" d="M227.195,291.646l.52,2.007-4,1.035,2.571,9.93-2.5.647-2.571-9.93-4.016,1.039-.519-2.007Z" transform="translate(-216.686 -291.646)" fill="#ffb4ce"/>
    </g>
    <g id="Group_6" data-name="Group 6" transform="translate(284.836 344.884)">
      <path id="Path_6" data-name="Path 6" d="M233.953,288.7a6.214,6.214,0,0,1,3.226-.383,5.157,5.157,0,0,1,2.68,1.335,8.383,8.383,0,0,1,2.373,6.374,5.134,5.134,0,0,1-1.155,2.763A6.908,6.908,0,0,1,235.15,301a5.128,5.128,0,0,1-2.69-1.332,8.4,8.4,0,0,1-2.372-6.375,5.127,5.127,0,0,1,1.163-2.765A6.265,6.265,0,0,1,233.953,288.7Zm.736,1.979a3.138,3.138,0,0,0-1.486,1.072,3,3,0,0,0-.548,1.738,7.21,7.21,0,0,0,1.616,4.343,3.012,3.012,0,0,0,1.552.958,3.132,3.132,0,0,0,1.825-.162,3.089,3.089,0,0,0,1.477-1.067,3.03,3.03,0,0,0,.54-1.736,7.221,7.221,0,0,0-1.618-4.343,3.012,3.012,0,0,0-1.544-.96A3.093,3.093,0,0,0,234.689,290.68Z" transform="translate(-230.052 -288.244)" fill="#ffb4ce"/>
    </g>
    <g id="Group_7" data-name="Group 7" transform="translate(301.858 337.987)">
      <path id="Path_7" data-name="Path 7" d="M251.662,295.334a5.786,5.786,0,0,1-3.04.441,5.041,5.041,0,0,1-2.664-1.248A7.552,7.552,0,0,1,244,291.633a7.271,7.271,0,0,1-.6-3.438,5.237,5.237,0,0,1,1.119-2.833,6.417,6.417,0,0,1,2.664-1.923,6.254,6.254,0,0,1,3.27-.546,5.094,5.094,0,0,1,2.685,1.371l-1.822,1.86a2.566,2.566,0,0,0-1.5-.97,3.135,3.135,0,0,0-1.814.23,3.265,3.265,0,0,0-1.489,1.147,3.158,3.158,0,0,0-.542,1.777,5.772,5.772,0,0,0,.5,2.291,6.318,6.318,0,0,0,1.26,2.038,2.909,2.909,0,0,0,1.628.885,3.587,3.587,0,0,0,1.952-.286,4.3,4.3,0,0,0,1.007-.575A2.769,2.769,0,0,0,253,291.9a2.105,2.105,0,0,0,.278-.944,2.472,2.472,0,0,0-.2-1.087l-.107-.259-2.989,1.228-.717-1.745,5.046-2.073,2.471,6.015-1.676.689-1.2-2.418.535.123a3.474,3.474,0,0,1-.618,2.305A4.751,4.751,0,0,1,251.662,295.334Z" transform="translate(-243.373 -282.846)" fill="#ffb4ce"/>
    </g>
    <g id="Group_8" data-name="Group 8" transform="translate(317.882 331.559)">
      <path id="Path_8" data-name="Path 8" d="M261.02,278.228a4.946,4.946,0,0,1,3.436-.183,3.744,3.744,0,0,1,1.882,5.151,5.074,5.074,0,0,1-2.741,2.027l-.194.23-2.492.911,1.623,4.44-2.387.872-4.233-11.582Zm1.657,5.4a2.508,2.508,0,0,0,1.367-.967,1.992,1.992,0,0,0-.932-2.545,2.517,2.517,0,0,0-1.668.144l-2.439.891,1.23,3.369Zm1.606-.01,5.868,4.4-2.72.994-4.96-3.937Z" transform="translate(-255.914 -277.816)" fill="#ffb4ce"/>
    </g>
    <g id="Group_9" data-name="Group 9" transform="translate(336.906 326.374)">
      <path id="Path_9" data-name="Path 9" d="M270.8,287.57l1.356-13.058,2.99-.754,7.378,10.86-2.593.653-4.783-7.447-1-1.676-.036.01-.06,1.9-.7,8.865ZM272.639,284l-.465-1.849,6.56-1.651.465,1.849Z" transform="translate(-270.802 -273.758)" fill="#ffb4ce"/>
    </g>
    <g id="Group_10" data-name="Group 10" transform="translate(353.359 323.435)">
      <path id="Path_10" data-name="Path 10" d="M288.826,271.5a5.656,5.656,0,0,1,2.465.221,3.587,3.587,0,0,1,1.694,1.195,4.431,4.431,0,0,1,.446,4.255,3.582,3.582,0,0,1-1.409,1.518,5.631,5.631,0,0,1-2.367.727l-2.584.272.456,4.348-2.564.268-1.285-12.264Zm.226,5.933a2.616,2.616,0,0,0,1.678-.675,2.113,2.113,0,0,0-.3-2.889,2.656,2.656,0,0,0-1.779-.3l-2.194.23.405,3.865Z" transform="translate(-283.678 -271.458)" fill="#ffb4ce"/>
    </g>
    <g id="Group_11" data-name="Group 11" transform="translate(370.897 322.738)">
      <path id="Path_11" data-name="Path 11" d="M300.472,271.016l-.492,12.322-2.577-.1.493-12.323Zm6.576,5.331-.083,2.073L298.9,278.1l.083-2.073Zm1.434-5.011-.492,12.322-2.576-.1.492-12.322Z" transform="translate(-297.403 -270.913)" fill="#ffb4ce"/>
    </g>
    <g id="Group_12" data-name="Group 12" transform="translate(389.721 323.996)">
      <path id="Path_12" data-name="Path 12" d="M323.272,273.939l-5.693,6.8-.832,4.539-2.536-.465.832-4.539-2.908-8.38,2.7.5,1.284,3.978.569,2.079,1.288-1.739,2.612-3.263Z" transform="translate(-312.135 -271.897)" fill="#ffb4ce"/>
    </g>
    <path id="Path_13" data-name="Path 13" d="M47.986,228.82s-23.869,1.68-11.68-31.282c11.115-30.058,54.272-81.155,66.9-84.881,0,0,4.761-2.027,6.974,2.507.557,1.218-.3,2.378-1.3,4.4,0,0-13.3,28.93-18.571,47.26s-7.389,25.538-7.389,25.538-7.4-3.744-5.993-16.437,6.434-28.15,6.434-28.15S54.418,185.562,47.986,228.82" transform="translate(0 7.738)" fill="#ffb4ce"/>
    <path id="Path_14" data-name="Path 14" d="M80.441,163.875s51.273-58.9,66.324-51.982c5.989,3.623,5.363,5.124,4.59,6.26s-35.077,48.616-35.215,95.914c0,4.554-.261,6.211-2.834,6.779s-11.926,1.452-13.019-15.682,9.7-47.616,21.688-65.583c0,0-11.765,5.71-41.829,50.069,0,0-2.773,4.249-4.081,4.255a7.687,7.687,0,0,1-3.979-1.294c-1.854-1.021,8.355-28.735,8.355-28.735" transform="translate(10.84 7.494)" fill="#ffb4ce"/>
    <path id="Path_15" data-name="Path 15" d="M159.743,133.69c-8.652-4.578-23.983,7.957-34.7,24.236-11.036,16.768-14.491,33.093-4.295,38.649,9.422,5.129,23.539-9.109,33.635-28.11,9-16.928,14.476-29.96,5.358-34.775m-6.756,23.044c-13.453,22.568-18.373,21.255-19.934,20.276-1.643-1.039-1.834-7.544,9.784-24.511s15.247-13.651,15.247-13.651c1.123.827,4.02,2.309-5.1,17.885" transform="translate(22.733 13.441)" fill="#ffb4ce"/>
    <path id="Path_16" data-name="Path 16" d="M155.25,140.444s8.145-1.36,14.328-6.16c0,0,2.189-.5-2.007,6.65s-13.528,26.531-8.947,27.034,14.56-21.814,14.56-21.814l-5.917,23.09s-10.083,20.88-21.022,20.88-4.425-16.062-4.425-16.062Z" transform="translate(29.739 13.869)" fill="#ffb4ce"/>
    <path id="Path_17" data-name="Path 17" d="M306.924,193.051c-9-4.755-24.939,8.269-36.073,25.2-11.472,17.425-15.065,34.393-4.465,40.171,9.8,5.335,24.465-9.47,34.967-29.219,9.355-17.6,15.041-31.145,5.571-36.15M299.9,217c-13.987,23.463-19.1,22.1-20.721,21.071-1.712-1.07-1.91-7.834,10.166-25.465s15.843-14.192,15.843-14.192c1.177.856,4.18,2.4-5.289,18.587" transform="translate(63.123 29.921)" fill="#ffb4ce"/>
    <path id="Path_18" data-name="Path 18" d="M200.809,127.919c3.393,1.128-6.673,12.381-.089,12.381,7.144,0,15.585-24.134,3.177-25.033,0,0-17.942-2.457-36.554,36.178-18.6,38.607,9.16,38.478,9.16,38.478,16.257,0,28.131-20.751,28.131-20.751l4.415-16.445c-19.826,27-27.318,22.6-27.318,22.6s-8.851-2.029-.3-21.053,19.379-26.356,19.379-26.356" transform="translate(35.582 8.579)" fill="#ffb4ce"/>
    <path id="Path_19" data-name="Path 19" d="M202.056,200.1s-11.633-.5-9.139-17.754,18.61-63.56,33.465-82.19,17.073,1.32,17.073,1.32-32.258,30.247-37.374,93.478c-.2,2.512.31,5.424-4.025,5.146" transform="translate(44.371 2.182)" fill="#ffb4ce"/>
    <path id="Path_20" data-name="Path 20" d="M208.324,144.9s26.192-30.133,47.787-31.172c11.444-.549,10.675,7.911,9.539,12.262a1.7,1.7,0,0,1-2.4,1.118c-1.852-.937-5.717-1.6-13.473.906-13.887,4.486-37.416,20.911-45.75,32.759Z" transform="translate(47.555 8.153)" fill="#ffb4ce"/>
    <path id="Path_21" data-name="Path 21" d="M216.724,136.682s9.171,27.954,41.887,35.786c2.772.539,2.993,2.188,1.65,3.652s-6.526,5.815-11.737,5.87c-5.024.054-15.465-.728-25.064-13.773a86.977,86.977,0,0,1-13.114-26.752Z" transform="translate(49.31 14.537)" fill="#ffb4ce"/>
    <path id="Path_22" data-name="Path 22" d="M301.005,200.423s6.866.661,16.238-6.6c0,0,2.244-.791-1.585,6.866s-16.37,41.188-3.7,42.112,25.877-34.06,31.025-33.8-16.107,39.737-33.136,47.789-26.14-7.26-16.767-32.212c6.073-17.427,7.921-24.159,7.921-24.159" transform="translate(71.25 30.404)" fill="#ffb4ce"/>
    <path id="Path_23" data-name="Path 23" d="M132.054,196.293s5.735-6.742,8.732-6.554,5.62,0,3.56,3.934c0,0-32.411,64.074-39.531,120.839,0,0-.955,5.052-5.411,5.052s-7.8-7.129-7.8-7.129-9.135-12.7,6.015-54.808,34.433-61.335,34.433-61.335" transform="translate(15.567 29.275)" fill="#ffb4ce"/>
    <path id="Path_24" data-name="Path 24" d="M152.257,247.12A71.322,71.322,0,0,0,166,232.856c13.086-19.833,5.644-42.093-16.048-39.64-24.012,2.715-57.291,21.743-67.507,40.771-10.277,19.141,8.467,21.389,8.467,21.389s.006-.2.027-.566a42.086,42.086,0,0,1,7.956-22.34c21.991-30.234,48.045-30.093,48.045-30.093,6.661-.247,17.717,2.648,10.364,16.238s-33.968,28.192-33.968,28.192,1.089,21.066,28.925.313" transform="translate(12.924 30.19)" fill="#ffb4ce"/>
    <path id="Path_25" data-name="Path 25" d="M138.214,296.646a7.879,7.879,0,0,1-3.956-6.71c0-7.262,3.956-13.076,15.656-18.066s96.348-35.786,171.535-18.925c0,0,1.2,1.549-1.72,1.376-2.828-.166-69.482-8.693-155.516,28.971-5.243,2.3-10.381,4.835-15.406,7.577Z" transform="translate(28.173 45.446)" fill="#ffb4ce"/>
    <path id="Path_26" data-name="Path 26" d="M179.213,208.526s-11.025-5.179-28.035,23.781-10.364,41.854-5.187,43.715,17.412.934,33.221-31.352,0-36.144,0-36.144m-7.042,24.352c-11.849,22.041-15.111,19.516-16.637,18.649-1.6-.908-2.143-6.883,8.187-23.515s14.2-13.7,14.2-13.7c1.105.737,2.259,3.366-5.747,18.566" transform="translate(29.84 34.395)" fill="#ffb4ce"/>
    <path id="Path_27" data-name="Path 27" d="M211.941,238.905c-15.693,26.306-25.852,20.772-25.852,20.772-18.594-8.164,7.892-52.792,7.892-52.792l4.474-6.794s10.611-.063,7,8.69c-1.385,3.358-15.254,27.614-10.471,30.893,1.62,1.112,6.578,3.847,25.809-30.8h0l-8.85,30.033" transform="translate(40.733 32.152)" fill="#ffb4ce"/>
    <path id="Path_28" data-name="Path 28" d="M236.309,233.571c-15.693,26.3-25.852,20.772-25.852,20.772-18.594-8.164,7.892-52.792,7.892-52.792l2.351-4.069s9.958-.3,7,8.692c-1.127,3.428-13.132,24.888-8.35,28.166,1.622,1.112,6.46,3.851,25.691-30.8h0l-8.732,30.029" transform="translate(47.502 31.427)" fill="#ffb4ce"/>
    <path id="Path_29" data-name="Path 29" d="M259.191,230.416c-15.693,26.306-25.852,20.772-25.852,20.772-18.595-8.164,7.751-52.93,7.751-52.93l3.874-7.119s11.351.4,7.74,9.154c-1.385,3.357-15.254,27.613-10.472,30.892,1.62,1.112,6.578,3.847,25.809-30.8h0l-8.85,30.033" transform="translate(53.852 29.665)" fill="#ffb4ce"/>
    <path id="Path_30" data-name="Path 30" d="M279.05,197.591c4.41-8.674-7.381-8.726-7.381-8.726l-1.969,4.1s-48.983,96.981-30.293,109.738c3.193,2.18,8.6,1.038,8.6,1.038s-.148-44.8,31.04-106.153" transform="translate(56.202 29.033)" fill="#ffb4ce"/>
    <path id="Path_31" data-name="Path 31" d="M204.122,200.091l-15.277,16.117c-3.943,3.812-12.487,13.867-19.715,9.727s2.23-11.416,4.466-10.046c0,0-.786-2.9-3.481-2.572s-7.032,3.615-9.2,8.28c0,0-5.258,9.267,1.972,14.261,3.614,2.5,7.967,1.955,11.417.788a24.244,24.244,0,0,0,7.926-4.585,170.175,170.175,0,0,0,14.172-13.29l11.567-11.763s1.664-5.6-3.791-6.917" transform="translate(35.065 32.152)" fill="#ffb4ce"/>
    <path id="Path_32" data-name="Path 32" d="M337.443,95.464s1.057,10.565-11.469,13.131-37.384,1-41.761-1.862c-.464-4.081.574-6.141,5.238-6.137,4.376,0,18.262,1.057,47.993-5.132" transform="translate(69.802 3.087)" fill="#ffb4ce"/>
    <path id="Path_33" data-name="Path 33" d="M284.191,104.281s7.956,42.31,45.987,62.987c8.15,3.32,10.565-8,9.659-10.263a34.414,34.414,0,0,1-6.942-2.566c-3.621-1.811-29.732-16.149-41.654-49.2Z" transform="translate(69.824 5.536)" fill="#ffb4ce"/>
    <path id="Path_34" data-name="Path 34" d="M312.95,119.91s.755-2.415,5.887,0,9.96,14.789,1.961,30.335-23.545,27.166-37.73,23.543-14.577-24.553-3.561-38.588,17.446-15.592,22.125-14.384-11.146,15.606-16.876,28.161c-4.76,10.431-1.25,13.667.2,14.459s8.855,4.991,26.49-20.436c6.036-8.754,7.244-18.865,1.509-23.091" transform="translate(66.375 9.58)" fill="#ffb4ce"/>
    <path id="Path_35" data-name="Path 35" d="M311.723,211.585c24.868,5.617,70.693-37.4,66.038-82.614-3.934-38.23-33.518-46.19-56.813-44.383-24.1,1.869-64.868,21.563-68.311,66.039-3.418,44.141,32.484,48.927,49.595,48.125,18.592-.873,36.629-11.1,45.718-22.593,7.524-9.514,3.326-15.459,1.656-17.225a.584.584,0,0,0-.943.143c-13.965,27-35.245,30.792-45.774,31.652-18.942,1.547-47.153-4.778-43.033-42.51,4.167-38.157,38.9-55.077,62.429-57.617s46.119,9.224,47.323,40.372-26.335,61.894-43.847,67.508-18.983.668-19.651,4.412c0,0-2.038,6.96,5.615,8.689" transform="translate(60.995 0)" fill="#ffb4ce"/>
  </g>
</svg>
