<svg xmlns="http://www.w3.org/2000/svg" width="77.797" height="9.033" viewBox="0 0 77.797 9.033">
  <g id="Group_2048" data-name="Group 2048" transform="translate(-294.227 -48.572)" style="isolation: isolate">
    <path id="Path_1933" data-name="Path 1933" d="M294.227,53.1c0-3.218,2.352-4.529,5.706-4.529a13.433,13.433,0,0,1,3.476.445l-.223,3.936a7.7,7.7,0,0,0-3.142-.657c-1.634,0-2.636.173-2.636.78,0,.68,1.188.8,2.9.8a7.879,7.879,0,0,0,3.279-.705l.012,4.009a16.322,16.322,0,0,1-3.7.421C296.554,57.6,294.227,56.293,294.227,53.1Z" fill="#035dff"/>
    <path id="Path_1934" data-name="Path 1934" d="M304.526,57.419V48.757h3.713l-.482,3.28h3.068l-.482-3.28h3.713v8.662h-3.713l.482-3.39h-3.068l.482,3.39Z" fill="#035dff"/>
    <path id="Path_1935" data-name="Path 1935" d="M318.142,52.074v.532l3.935-.124v1.139l-3.935-.125v.583l5.556-.273v3.613h-8.712V48.757H323.4V52.2Z" fill="#035dff"/>
    <path id="Path_1936" data-name="Path 1936" d="M327.7,52.074v.532l3.936-.124v1.139L327.7,53.5v.583l5.557-.273v3.613h-8.712V48.757h8.415V52.2Z" fill="#035dff"/>
    <path id="Path_1937" data-name="Path 1937" d="M337.3,54.165l.3,3.254h-3.5V48.757h5.308c2.4.025,4.047.656,4.047,2.6,0,1.51-1.424,2.24-3.96,2.24v.186h.915c2.216,0,3.453,1.361,3.168,3.637h-4c.421-1.732.235-3.254-1.052-3.254Zm-.013-1.844v.842h1.968c.569,0,.977-.136.977-.433s-.421-.409-.977-.409Z" fill="#035dff"/>
    <path id="Path_1938" data-name="Path 1938" d="M344.373,57.419V48.757h8.341v3.7l-5.186-.272v.668l4.047-.123V54.4l-4.047-.2.446,3.216Z" fill="#035dff"/>
    <path id="Path_1939" data-name="Path 1939" d="M353.519,53.782V48.757h3.466l-.272,3.354a1.48,1.48,0,1,0,2.932,0l-.272-3.354h3.44v5.025c0,2.424-1.682,3.823-4.64,3.823S353.519,56.219,353.519,53.782Z" fill="#035dff"/>
    <path id="Path_1940" data-name="Path 1940" d="M372.023,53.621v3.8h-8.3V48.757h3.452l-.334,5.062Z" fill="#035dff"/>
  </g>
</svg>
