<svg xmlns="http://www.w3.org/2000/svg" width="92.711" height="9.035" viewBox="0 0 92.711 9.035">
  <g id="Group_2047" data-name="Group 2047" transform="translate(-226.488 -110.914)" style="isolation: isolate">
    <path id="Path_1924" data-name="Path 1924" d="M226.488,119.763V111.1H230.2l-.483,3.279h3.069L232.3,111.1h3.712v8.663H232.3l.482-3.391h-3.069l.483,3.391Z" fill="#fff"/>
    <path id="Path_1925" data-name="Path 1925" d="M236.824,115.432c0-2.945,2.129-4.518,5.186-4.518s5.184,1.573,5.184,4.518-2.128,4.517-5.184,4.517S236.824,118.365,236.824,115.432Zm7.178,0c0-.569-.768-.9-1.992-.9s-1.981.334-1.981.9.755.891,1.981.891S244,115.989,244,115.432Z" fill="#fff"/>
    <path id="Path_1926" data-name="Path 1926" d="M254.981,119.763l-3.65-4.629-.187.05.892,4.579H248V111.1h2.982l3.564,3.861.2-.061-.73-3.8h3.874v8.663Z" fill="#fff"/>
    <path id="Path_1927" data-name="Path 1927" d="M258.7,115.432c0-2.945,2.129-4.518,5.186-4.518s5.184,1.573,5.184,4.518-2.128,4.517-5.184,4.517S258.7,118.365,258.7,115.432Zm7.178,0c0-.569-.768-.9-1.992-.9s-1.981.334-1.981.9.755.891,1.981.891S265.874,115.989,265.874,115.432Z" fill="#fff"/>
    <path id="Path_1928" data-name="Path 1928" d="M273.08,116.508l.3,3.255h-3.5V111.1h5.309c2.4.025,4.046.656,4.046,2.6,0,1.509-1.423,2.239-3.96,2.239v.185h.915c2.216,0,3.454,1.362,3.168,3.639h-4c.421-1.732.236-3.255-1.051-3.255Zm-.013-1.844v.842h1.968c.569,0,.978-.136.978-.433s-.421-.409-.978-.409Z" fill="#fff"/>
    <path id="Path_1929" data-name="Path 1929" d="M284.1,119.763h-4.443l3.564-8.663h3.824l3.564,8.663h-4.443l-.284-1.745h-1.5Zm.916-5.321-.4,2.574h1.028l-.409-2.574Z" fill="#fff"/>
    <path id="Path_1930" data-name="Path 1930" d="M291.042,119.763V111.1h5.742c2.115,0,3.452.755,3.452,2.166,0,1.226-1,1.943-2.809,1.943v.223c2.042,0,3.217.618,3.217,1.98,0,1.459-1.3,2.351-3.464,2.351Zm3.168-4.678h2.153c.446,0,.73-.136.73-.383s-.3-.372-.742-.372H294.21Zm0,1.436h2.3c.482,0,.742-.161.742-.421s-.26-.421-.742-.421h-2.3Z" fill="#fff"/>
    <path id="Path_1931" data-name="Path 1931" d="M309.682,115.963v3.8h-8.3V111.1h3.452l-.334,5.062Z" fill="#fff"/>
    <path id="Path_1932" data-name="Path 1932" d="M313.644,114.417v.532l3.935-.123v1.137l-3.935-.123v.581l5.556-.271v3.613h-8.712V111.1H318.9v3.44Z" fill="#fff"/>
  </g>
</svg>
