<svg xmlns="http://www.w3.org/2000/svg" width="76.432" height="9.035" viewBox="0 0 76.432 9.035">
  <g id="Group_2042" data-name="Group 2042" transform="translate(-135.676 -90.201)" style="isolation: isolate">
    <path id="Path_1889" data-name="Path 1889" d="M135.686,98.481l-.011-3.973a7.721,7.721,0,0,0,4.752,1.337c.952,0,1.46-.062,1.46-.285,0-.94-6.163.359-6.163-2.8,0-1.868,2-2.561,4.714-2.561a13.587,13.587,0,0,1,4.481.78l-.471,3.539a8.231,8.231,0,0,0-3.848-.941c-.916,0-1.547.112-1.547.347,0,.978,6.187-.458,6.187,2.6,0,1.806-1.732,2.71-4.7,2.71A17.464,17.464,0,0,1,135.686,98.481Z" fill="#fff460"/>
    <path id="Path_1890" data-name="Path 1890" d="M149.1,93.7v.532l3.935-.123V95.25l-3.935-.123v.581l5.556-.271V99.05h-8.711V90.387h8.414v3.441Z" fill="#fff460"/>
    <path id="Path_1891" data-name="Path 1891" d="M163.809,95.25v3.8h-8.3V90.387h3.452l-.334,5.062Z" fill="#fff460"/>
    <path id="Path_1892" data-name="Path 1892" d="M164.615,99.05V90.387h8.341v3.7l-5.186-.271v.668l4.047-.124v1.671l-4.047-.2.446,3.218Z" fill="#fff460"/>
    <path id="Path_1893" data-name="Path 1893" d="M182.091,95.25v3.8h-8.3V90.387h3.452l-.334,5.062Z" fill="#fff460"/>
    <path id="Path_1894" data-name="Path 1894" d="M186.054,93.7v.532l3.935-.123V95.25l-3.935-.123v.581l5.556-.271V99.05H182.9V90.387h8.415v3.441Z" fill="#fff460"/>
    <path id="Path_1895" data-name="Path 1895" d="M192.367,98.481l-.013-3.973a7.729,7.729,0,0,0,4.752,1.337c.954,0,1.461-.062,1.461-.285,0-.94-6.163.359-6.163-2.8,0-1.868,2-2.561,4.715-2.561a13.586,13.586,0,0,1,4.48.78l-.47,3.539a8.235,8.235,0,0,0-3.849-.941c-.916,0-1.547.112-1.547.347,0,.978,6.188-.458,6.188,2.6,0,1.806-1.733,2.71-4.7,2.71A17.462,17.462,0,0,1,192.367,98.481Z" fill="#fff460"/>
    <path id="Path_1896" data-name="Path 1896" d="M202.555,98.481l-.013-3.973a7.727,7.727,0,0,0,4.752,1.337c.953,0,1.461-.062,1.461-.285,0-.94-6.163.359-6.163-2.8,0-1.868,2.005-2.561,4.715-2.561a13.58,13.58,0,0,1,4.479.78l-.47,3.539a8.234,8.234,0,0,0-3.848-.941c-.916,0-1.547.112-1.547.347,0,.978,6.187-.458,6.187,2.6,0,1.806-1.732,2.71-4.7,2.71A17.45,17.45,0,0,1,202.555,98.481Z" fill="#fff460"/>
  </g>
</svg>
