<svg xmlns="http://www.w3.org/2000/svg" width="65.17" height="8.674" viewBox="0 0 65.17 8.674">
  <g id="Group_2051" data-name="Group 2051" transform="translate(-131.713 -44.195)" style="isolation: isolate">
    <path id="Path_1958" data-name="Path 1958" d="M131.713,52.857V44.195h5.308c2.414.024,4.047,1.027,4.047,3.131,0,2.066-1.6,3.118-4.059,3.118h-2.1l.284,2.426Zm3.192-4.046h2.017c.569,0,.929-.149.929-.483,0-.372-.421-.47-.929-.47H134.9Z" fill="#fff"/>
    <path id="Path_1959" data-name="Path 1959" d="M144.4,52.857h-4.442l3.563-8.662h3.825l3.564,8.662h-4.443l-.284-1.744h-1.5Zm.916-5.321-.4,2.574h1.027l-.408-2.574Z" fill="#fff"/>
    <path id="Path_1960" data-name="Path 1960" d="M158.373,47.994l-3.118-.124.643,4.987h-3.687l.643-4.987-3.106.124.024-3.8h8.577Z" fill="#fff"/>
    <path id="Path_1961" data-name="Path 1961" d="M159.081,44.195h8.094v3.724l-2.6-.2.025,1.609,2.574-.2v3.725h-8.094V49.132l2.574.2.026-1.609-2.6.2Z" fill="#fff"/>
    <path id="Path_1962" data-name="Path 1962" d="M171.162,47.511v.532l3.936-.124v1.139l-3.936-.124v.582l5.557-.272v3.613h-8.712V44.195h8.415v3.44Z" fill="#fff"/>
    <path id="Path_1963" data-name="Path 1963" d="M184.542,52.857l-3.65-4.628-.187.05.892,4.578h-4.035V44.195h2.983l3.563,3.861.2-.062-.731-3.8h3.874v8.662Z" fill="#fff"/>
    <path id="Path_1964" data-name="Path 1964" d="M196.883,47.994l-3.118-.124.643,4.987h-3.687l.643-4.987-3.106.124.024-3.8h8.576Z" fill="#fff"/>
  </g>
</svg>
