<svg xmlns="http://www.w3.org/2000/svg" width="91.709" height="9.033" viewBox="0 0 91.709 9.033">
  <g id="Group_2043" data-name="Group 2043" transform="translate(-225.809 -92.063)" style="isolation: isolate">
    <path id="Path_1897" data-name="Path 1897" d="M225.808,100.911V92.248h8.34v3.7l-5.185-.273v.668l4.047-.123v1.67l-4.047-.2.446,3.217Z" fill="#ff6541"/>
    <path id="Path_1898" data-name="Path 1898" d="M234.807,96.579c0-2.945,2.128-4.516,5.185-4.516s5.185,1.571,5.185,4.516-2.128,4.517-5.185,4.517S234.807,99.512,234.807,96.579Zm7.177,0c0-.569-.767-.9-1.992-.9s-1.98.334-1.98.9.755.891,1.98.891S241.984,97.136,241.984,96.579Z" fill="#ff6541"/>
    <path id="Path_1899" data-name="Path 1899" d="M249.189,97.657l.3,3.254h-3.5V92.248h5.309c2.4.025,4.047.657,4.047,2.6,0,1.51-1.424,2.24-3.96,2.24v.186h.915c2.216,0,3.453,1.361,3.168,3.638h-4c.421-1.733.235-3.254-1.052-3.254Zm-.012-1.845v.842h1.967c.57,0,.978-.136.978-.433s-.421-.409-.978-.409Z" fill="#ff6541"/>
    <path id="Path_1900" data-name="Path 1900" d="M255.763,96.592c0-3.032,2.277-4.529,5.531-4.529a20.183,20.183,0,0,1,3.651.321L264.6,95.75a17.29,17.29,0,0,0-3.157-.284c-1.571,0-2.536.371-2.536,1.089,0,.742.742,1.1,2.042,1.1.891,0,1.485-.224,1.5-.545l-2.339-.025V95.9h6.609L266.7,97.26h-.643l.086,3.651h-3.156l.669-3.428h-.235c-.421,2.784-1.547,3.613-3.391,3.613C257.508,101.1,255.763,99.549,255.763,96.592Z" fill="#ff6541"/>
    <path id="Path_1901" data-name="Path 1901" d="M267.226,92.248h8.093v3.725l-2.6-.2.024,1.609,2.574-.2v3.725h-8.093V97.186l2.574.2.025-1.609-2.6.2Z" fill="#ff6541"/>
    <path id="Path_1902" data-name="Path 1902" d="M279.219,100.911l-3.564-8.663h4.356l1.015,4.765h.223l.989-4.765h4.369l-3.564,8.663Z" fill="#ff6541"/>
    <path id="Path_1903" data-name="Path 1903" d="M286.944,92.248h8.094v3.725l-2.6-.2.025,1.609,2.574-.2v3.725h-8.094V97.186l2.575.2.025-1.609-2.6.2Z" fill="#ff6541"/>
    <path id="Path_1904" data-name="Path 1904" d="M302.849,100.911,299.2,96.283l-.186.049.891,4.579h-4.034V92.248h2.983l3.563,3.862.2-.063-.73-3.8h3.874v8.663Z" fill="#ff6541"/>
    <path id="Path_1905" data-name="Path 1905" d="M306.564,96.592c0-3.032,2.278-4.529,5.532-4.529a20.183,20.183,0,0,1,3.651.321L315.4,95.75a17.27,17.27,0,0,0-3.156-.284c-1.571,0-2.536.371-2.536,1.089,0,.742.742,1.1,2.042,1.1.891,0,1.484-.224,1.5-.545l-2.339-.025V95.9h6.609L317.5,97.26h-.644l.087,3.651h-3.156l.669-3.428h-.235c-.421,2.784-1.547,3.613-3.391,3.613C308.31,101.1,306.564,99.549,306.564,96.592Z" fill="#ff6541"/>
  </g>
</svg>
