<svg xmlns="http://www.w3.org/2000/svg" width="39.461" height="8.662" viewBox="0 0 39.461 8.662">
  <g id="Group_2039" data-name="Group 2039" transform="translate(-230.188 -42.842)" style="isolation: isolate">
    <path id="Path_1873" data-name="Path 1873" d="M233.852,51.5h-3.664V42.841h3.478l-.371,4.146h.2l.99-4.146H239.6L234.371,47l.161.2a2.549,2.549,0,0,1,1.844-.965c2.314,0,3.465,2.166,3.094,5.271h-3.985c.47-1.856.371-3.873-.99-3.873-.866,0-1.188.755-1.015,1.634Z" fill="#ff6541"/>
    <path id="Path_1874" data-name="Path 1874" d="M240.24,42.841h8.093v3.725l-2.6-.2.025,1.609,2.574-.2V51.5H240.24V47.779l2.573.2.026-1.609-2.6.2Z" fill="#ff6541"/>
    <path id="Path_1875" data-name="Path 1875" d="M256.144,51.5l-3.651-4.628-.186.05L253.2,51.5h-4.034V42.841h2.982L255.71,46.7l.2-.063-.73-3.8h3.874V51.5Z" fill="#ff6541"/>
    <path id="Path_1876" data-name="Path 1876" d="M259.983,51.5V42.841h4.493c3.179,0,5.172,1.534,5.172,4.331s-1.993,4.331-5.172,4.331Zm3.193-5.061V47.9h1.646c1,0,1.6-.26,1.6-.731s-.594-.73-1.6-.73Z" fill="#ff6541"/>
  </g>
</svg>
