<svg xmlns="http://www.w3.org/2000/svg" width="60.801" height="8.848" viewBox="0 0 60.801 8.848">
  <g id="Group_2040" data-name="Group 2040" transform="translate(-134.59 -67.715)" style="isolation: isolate">
    <path id="Path_1877" data-name="Path 1877" d="M134.589,76.376V67.714H138.3l-.484,3.28h3.07l-.483-3.28h3.712v8.662H140.4l.483-3.39h-3.07l.484,3.39Z" fill="#035dff"/>
    <path id="Path_1878" data-name="Path 1878" d="M145.024,72.739V67.714h3.465l-.272,3.354a1.48,1.48,0,1,0,2.932,0l-.272-3.354h3.44v5.025c0,2.424-1.682,3.823-4.64,3.823S145.024,75.176,145.024,72.739Z" fill="#035dff"/>
    <path id="Path_1879" data-name="Path 1879" d="M154.716,76.376l.8-8.662h4.06l.842,4.851h.21l.853-4.851h4.06l.792,8.662h-4.208l.643-5-.222-.037-1.3,4.158h-1.436L158.5,71.34l-.21.037.631,5Z" fill="#035dff"/>
    <path id="Path_1880" data-name="Path 1880" d="M167.23,76.376V67.714h5.743c2.115,0,3.452.755,3.452,2.166,0,1.225-1,1.943-2.81,1.943v.222c2.042,0,3.218.619,3.218,1.981,0,1.46-1.3,2.35-3.465,2.35ZM170.4,71.7h2.154c.445,0,.729-.136.729-.384s-.3-.371-.742-.371H170.4Zm0,1.435h2.3c.483,0,.742-.161.742-.421s-.259-.42-.742-.42h-2.3Z" fill="#035dff"/>
    <path id="Path_1881" data-name="Path 1881" d="M185.871,72.578v3.8h-8.3V67.714h3.452l-.334,5.062Z" fill="#035dff"/>
    <path id="Path_1882" data-name="Path 1882" d="M189.833,71.031v.532l3.936-.124v1.139l-3.936-.124v.582l5.557-.273v3.613h-8.712V67.714h8.415v3.441Z" fill="#035dff"/>
  </g>
</svg>
